<svg width="22" height="27" viewBox="0 0 22 27" fill="none" xmlns="http://www.w3.org/2000/svg">
<path d="M15.25 5.91669C15.25 8.2639 13.3472 10.1667 11 10.1667V11.6667C14.1756 11.6667 16.75 9.09232 16.75 5.91669H15.25ZM11 10.1667C8.65279 10.1667 6.75 8.2639 6.75 5.91669H5.25C5.25 9.09232 7.82436 11.6667 11 11.6667V10.1667ZM6.75 5.91669C6.75 3.56948 8.65279 1.66669 11 1.66669V0.166687C7.82436 0.166687 5.25 2.74105 5.25 5.91669H6.75ZM11 1.66669C13.3472 1.66669 15.25 3.56948 15.25 5.91669H16.75C16.75 2.74105 14.1756 0.166687 11 0.166687V1.66669ZM6 16.6667H16V15.1667H6V16.6667ZM16 25.1667H6V26.6667H16V25.1667ZM6 25.1667C3.65279 25.1667 1.75 23.2639 1.75 20.9167H0.25C0.25 24.0923 2.82436 26.6667 6 26.6667V25.1667ZM20.25 20.9167C20.25 23.2639 18.3472 25.1667 16 25.1667V26.6667C19.1756 26.6667 21.75 24.0923 21.75 20.9167H20.25ZM16 16.6667C18.3472 16.6667 20.25 18.5695 20.25 20.9167H21.75C21.75 17.741 19.1756 15.1667 16 15.1667V16.6667ZM6 15.1667C2.82436 15.1667 0.25 17.741 0.25 20.9167H1.75C1.75 18.5695 3.65279 16.6667 6 16.6667V15.1667Z" fill="#2D264B"/>
</svg>
